<svg width="390" height="244" viewBox="0 0 390 244" fill="none" xmlns="http://www.w3.org/2000/svg">
<g clip-path="url(#clip0_19_342)">
<path d="M111.439 133.26C111.439 133.26 98.9925 134.903 95.6201 133.318C92.2476 131.733 95.6455 130.514 100.733 131.108C104.774 131.581 111.439 133.26 111.439 133.26Z" fill="#F4F4F4"/>
<path d="M283.392 198.447C283.392 198.447 296.521 205.733 298.543 209.492C300.564 213.251 296.398 211.939 291.989 207.849C288.487 204.598 283.392 198.447 283.392 198.447Z" fill="#328930"/>
<path d="M208.476 80.3324C208.185 80.513 183.409 57.7427 174.432 54.9296C165.16 52.2489 169.56 60.6861 181.177 68.0539C190.311 74.0081 208.397 80.4481 208.476 80.3324Z" fill="#F4F4F4"/>
<path d="M189.243 87.641C188.923 87.8396 164.991 67.7341 156.581 65.4323C147.832 63.2884 152.195 70.9041 163.334 77.2615C172.092 82.4062 189.177 87.7435 189.243 87.641Z" fill="#F4F4F4"/>
<path d="M168.344 94.5408C168.092 94.6719 148.549 75.9069 141.202 73.521C133.591 71.2363 137.021 78.0146 146.404 84.0856C153.784 88.9741 168.29 94.6142 168.344 94.5408Z" fill="#F4F4F4"/>
<path d="M154.527 97.648C154.213 97.8718 130.682 82.7111 122.955 81.5025C114.875 80.484 119.639 86.6466 130.352 91.0652C138.792 94.658 154.495 97.7326 154.527 97.648Z" fill="#F4F4F4"/>
<path d="M132.643 101.559C132.538 101.623 119.645 92.3125 115.042 91.5749C110.323 90.8915 113.046 94.3949 119.089 97.1002C123.865 99.2741 132.632 101.585 132.643 101.559Z" fill="#F4F4F4"/>
<path d="M132.658 101.63C132.786 101.664 123.524 113.8 118.527 115.224C113.666 116.674 115.729 112.866 120.995 109.096C125.212 106.12 132.681 101.65 132.658 101.63Z" fill="#F4F4F4"/>
<path d="M208.417 80.217C208.752 80.1236 210.038 112.846 202.318 121.256C194.901 129.527 193.31 120.222 197.88 107.326C201.65 97.0756 208.56 80.2336 208.417 80.217Z" fill="#F4F4F4"/>
<path d="M189.354 87.9023C189.739 87.8596 184.579 117.715 175.992 124.154C167.782 130.511 168.269 121.838 174.803 110.845C180.129 102.128 189.475 87.9363 189.354 87.9023Z" fill="#F4F4F4"/>
<path d="M168.299 94.4064C168.593 94.3946 162.218 119.776 154.547 124.85C147.164 129.882 148.01 122.428 154.271 113.31C159.347 106.086 168.389 94.4389 168.299 94.4064Z" fill="#F4F4F4"/>
<path d="M154.504 97.5643C154.91 97.6447 139.796 120.285 130.561 123.067C121.755 125.91 125.456 119.078 134.618 112.011C142.006 106.448 154.581 97.6227 154.504 97.5643Z" fill="#F4F4F4"/>
<path d="M114.827 103.688C154.9 99.9845 193.24 88.4057 227.533 69.7401C227.785 70.1554 228.036 70.5692 228.288 70.9845C228.571 71.4521 228.854 71.9192 229.138 72.3867C193.946 90.3625 155.038 100.981 114.827 103.688Z" fill="#F4F4F4"/>
<path d="M389.923 79.0586C400.561 83.4915 411.877 89.2386 423.413 95.049C426.469 93.5337 429.511 91.9725 432.504 90.3803C420.9 84.6161 409.333 78.4079 398.284 73.0602C395.467 74.8965 392.672 76.8732 389.923 79.0586Z" fill="#4DAA15"/>
<path d="M372.627 97.4268C381.05 98.5013 390.304 101.427 400.082 105.365C403.793 104.019 407.644 102.4 411.562 100.649C400.539 95.4293 389.939 90.8627 380.168 88.0612C377.568 90.8602 375.046 93.9574 372.627 97.4268Z" fill="#4DAA15"/>
<path d="M381.001 87.1773C390.871 90.1454 401.563 94.8462 412.66 100.153C415.89 98.6902 419.16 97.1418 422.42 95.5386C410.905 89.7485 399.63 84.0762 389.048 79.7626C386.308 81.9933 383.617 84.4401 381.001 87.1773Z" fill="#328930"/>
<path d="M388.123 78.9685C383.782 69.5689 379.501 60.1727 375.279 50.7812C372.659 53.3746 370.22 56.2358 368.08 59.3292C372.029 68.3759 376.037 77.4286 380.103 86.4865C382.709 83.71 385.391 81.228 388.123 78.9685Z" fill="#4DAA15"/>
<path d="M397.343 72.1872C392.784 62.6156 388.284 53.0416 383.842 43.4667C381.199 45.4522 378.57 47.6104 376.082 49.9979C380.327 59.4137 384.632 68.8329 388.997 78.2551C391.74 76.0418 394.53 74.0422 397.343 72.1872Z" fill="#328930"/>
<path d="M369.241 102.656C369.056 102.963 368.886 102.835 368.671 102.684L368.67 102.683C368.456 102.532 368.28 102.416 368.463 102.105C369.313 100.664 370.179 99.2815 371.059 97.9507C367.597 89.9875 364.184 82.0308 360.819 74.0794C359.868 77.1162 359.23 80.1446 358.98 82.9427C357.799 96.745 362.935 108.25 364.055 110.398C361.5 115.115 359.131 120.44 356.99 126.49C356.488 127.922 356.562 129.375 357.143 129.593C357.73 129.813 358.599 128.734 359.018 127.301C360.77 121.251 362.689 115.776 364.743 110.789C367.021 110.461 378.503 110.093 390.828 108.056C393.349 107.561 395.963 106.797 398.658 105.868C389.103 102.131 380.073 99.427 371.859 98.5474C370.971 99.8629 370.098 101.232 369.241 102.656Z" fill="#328930"/>
<path d="M379.274 87.3829C375.246 78.3789 371.275 69.3809 367.361 60.3894C364.838 64.2048 362.78 68.3529 361.328 72.5139C364.76 80.6331 368.241 88.7584 371.772 96.8886C374.176 93.3666 376.685 90.2236 379.274 87.3829Z" fill="#4DAA15"/>
<path d="M416.081 61.2355C410.994 51.1917 405.964 41.1249 400.988 31.039C398.73 32.7406 396.237 34.5947 393.385 36.6388C398.077 46.418 402.827 56.1874 407.632 65.9456C410.463 64.3369 413.287 62.7888 416.081 61.2355Z" fill="#328930"/>
<path d="M406.728 66.4605C401.948 56.7263 397.225 46.9819 392.559 37.2285C390.982 38.3551 389.302 39.5399 387.501 40.8104C386.566 41.4692 385.625 42.145 384.684 42.8399C389.145 52.4281 393.665 62.0146 398.242 71.5991C401.059 69.7727 403.895 68.0827 406.728 66.4605Z" fill="#4DAA15"/>
<path d="M267.516 136.184C263.925 133.227 249.21 132.88 243.77 120.593C252.896 118.426 261.942 115.86 270.878 112.889C273.088 112.155 274.21 109.984 273.312 108.229C272.414 106.475 269.932 105.868 267.927 106.886C259.78 111.027 251.417 114.819 242.859 118.248C238.882 105.582 247.204 95.7266 247.044 91.33C246.753 82.5014 228.817 82.1616 224.631 84.9358C220.364 87.8971 221.226 91.9893 222.001 94.2133C222.111 94.5304 222.197 94.7314 222.251 94.8448C221.975 94.3911 220.715 92.7591 217.585 92.0122C212.765 90.8206 212.959 89.165 205.339 93.0408C197.751 96.94 186.192 101.996 188.988 107.413C192.03 113.13 186.873 106.012 184.332 106.207C177.591 106.778 168.94 115.124 163.151 119.148C157.413 123.175 162.543 124.117 161.44 126.263C160.294 128.4 159.547 123.045 156.048 124.431C151.112 126.402 145.765 134.562 145.728 134.557C145.693 134.572 152.78 141.412 156.463 143.11C160.119 144.83 161.542 139.974 163.193 141.968C164.89 143.953 159.365 145.419 166.504 148.717C173.616 152.017 184.765 157.296 192.128 154.896C194.959 153.998 198.568 147.435 197.982 153.727C197.349 159.685 208.995 162.62 219.947 162.489C230.871 162.357 234.503 159.163 238.774 155.655C241.558 153.344 241.668 151.308 241.638 150.789C241.663 150.911 241.716 151.12 241.825 151.436C242.593 153.638 244.545 157.508 251.282 157.24C258.262 157.106 275.135 142.518 267.516 136.184ZM183.645 119.84C184.814 121.428 184.712 123.282 183.382 123.976C182.053 124.669 180.021 123.926 178.876 122.318C177.73 120.709 177.885 118.864 179.189 118.19C180.495 117.514 182.475 118.252 183.645 119.84ZM213.315 116.75C211.196 117.222 209.066 116.104 208.566 114.283C208.066 112.462 209.341 110.637 211.404 110.177C213.467 109.718 215.583 110.787 216.139 112.597C216.695 114.405 215.434 116.278 213.315 116.75ZM223.141 118.537C222.15 118.787 221.13 118.303 220.866 117.461C220.602 116.62 221.182 115.742 222.161 115.495C223.14 115.247 224.156 115.722 224.433 116.56C224.709 117.399 224.132 118.287 223.141 118.537ZM199.723 124.464C198.707 124.64 197.723 124.083 197.526 123.228C197.329 122.373 197.983 121.544 198.985 121.37C199.988 121.197 200.969 121.742 201.18 122.595C201.388 123.449 200.737 124.289 199.723 124.464ZM179.938 137.552C180.082 138.415 179.333 139.205 178.263 139.31C177.193 139.417 176.217 138.797 176.085 137.932C175.953 137.069 176.705 136.29 177.763 136.184C178.821 136.081 179.794 136.689 179.938 137.552ZM217.564 135.438C216.515 135.668 215.471 135.161 215.234 134.314C214.997 133.466 215.647 132.6 216.684 132.373C217.72 132.146 218.762 132.641 219.01 133.486C219.259 134.33 218.613 135.208 217.564 135.438ZM191.681 145.222C190.663 146.921 188.581 147.834 187.069 147.254C185.557 146.675 185.203 144.84 186.24 143.16C187.277 141.482 189.297 140.578 190.79 141.138C192.284 141.696 192.7 143.523 191.681 145.222ZM223.012 143.358C221.445 142.935 220.893 141.136 221.741 139.35C222.591 137.562 224.502 136.45 226.049 136.854C227.595 137.259 228.208 139.042 227.379 140.848C226.551 142.654 224.579 143.782 223.012 143.358Z" fill="#4DAA15"/>
<mask id="mask0_19_342" style="mask-type:luminance" maskUnits="userSpaceOnUse" x="145" y="83" width="129" height="80">
<path d="M267.516 136.184C263.925 133.227 249.21 132.88 243.77 120.593C252.896 118.426 261.942 115.86 270.878 112.889C273.088 112.155 274.21 109.984 273.312 108.229C272.414 106.475 269.932 105.868 267.927 106.886C259.78 111.027 251.417 114.819 242.859 118.248C238.882 105.582 247.204 95.7266 247.044 91.33C246.753 82.5014 228.817 82.1616 224.631 84.9358C220.364 87.8971 221.226 91.9893 222.001 94.2133C222.111 94.5304 222.197 94.7314 222.251 94.8448C221.975 94.3911 220.715 92.7591 217.585 92.0122C212.765 90.8206 212.959 89.165 205.339 93.0408C197.751 96.94 186.192 101.996 188.988 107.413C192.03 113.13 186.873 106.012 184.332 106.207C177.591 106.778 168.94 115.124 163.151 119.148C157.413 123.175 162.543 124.117 161.44 126.263C160.294 128.4 159.547 123.045 156.048 124.431C151.112 126.402 145.765 134.562 145.728 134.557C145.693 134.572 152.78 141.412 156.463 143.11C160.119 144.83 161.542 139.974 163.193 141.968C164.89 143.953 159.365 145.419 166.504 148.717C173.616 152.017 184.765 157.296 192.128 154.896C194.959 153.998 198.568 147.435 197.982 153.727C197.349 159.685 208.995 162.62 219.947 162.489C230.871 162.357 234.503 159.163 238.774 155.655C241.558 153.344 241.668 151.308 241.638 150.789C241.663 150.911 241.716 151.12 241.825 151.436C242.593 153.638 244.545 157.508 251.282 157.24C258.262 157.106 275.135 142.518 267.516 136.184ZM183.645 119.84C184.814 121.428 184.712 123.282 183.382 123.976C182.053 124.669 180.021 123.926 178.876 122.318C177.73 120.709 177.885 118.864 179.189 118.19C180.495 117.514 182.475 118.252 183.645 119.84ZM213.315 116.75C211.196 117.222 209.066 116.104 208.566 114.283C208.066 112.462 209.341 110.637 211.404 110.177C213.467 109.718 215.583 110.787 216.139 112.597C216.695 114.405 215.434 116.278 213.315 116.75ZM223.141 118.537C222.15 118.787 221.13 118.303 220.866 117.461C220.602 116.62 221.182 115.742 222.161 115.495C223.14 115.247 224.156 115.722 224.433 116.56C224.709 117.399 224.132 118.287 223.141 118.537ZM199.723 124.464C198.707 124.64 197.723 124.083 197.526 123.228C197.329 122.373 197.983 121.544 198.985 121.37C199.988 121.197 200.969 121.742 201.18 122.595C201.388 123.449 200.737 124.289 199.723 124.464ZM179.938 137.552C180.082 138.415 179.333 139.205 178.263 139.31C177.193 139.417 176.217 138.797 176.085 137.932C175.953 137.069 176.705 136.29 177.763 136.184C178.821 136.081 179.794 136.689 179.938 137.552ZM217.564 135.438C216.515 135.668 215.471 135.161 215.234 134.314C214.997 133.466 215.647 132.6 216.684 132.373C217.72 132.146 218.762 132.641 219.01 133.486C219.259 134.33 218.613 135.208 217.564 135.438ZM191.681 145.222C190.663 146.921 188.581 147.834 187.069 147.254C185.557 146.675 185.203 144.84 186.24 143.16C187.277 141.482 189.297 140.578 190.79 141.138C192.284 141.696 192.7 143.523 191.681 145.222ZM223.012 143.358C221.445 142.935 220.893 141.136 221.741 139.35C222.591 137.562 224.502 136.45 226.049 136.854C227.595 137.259 228.208 139.042 227.379 140.848C226.551 142.654 224.579 143.782 223.012 143.358Z" fill="white"/>
</mask>
<g mask="url(#mask0_19_342)">
<path opacity="0.1" d="M138.329 133.077C138.329 133.077 155.132 139.712 178.996 132.917C202.857 126.122 202.285 128.307 211.163 129.192C220.042 130.077 237.939 119.4 240.855 119.996C243.771 120.593 266.579 112.941 276.478 105.451C276.478 105.451 272.331 120.083 258.806 121.722C258.806 121.722 280.598 130.335 276.693 141.757C272.789 153.179 246.53 164.818 225.391 168.314C204.251 171.811 148.118 148.438 138.329 133.077Z" fill="black"/>
</g>
<path d="M294.103 181.539C298.078 178.962 298.038 172.587 302.225 171.036C306.454 169.458 303.583 172.59 302.374 176.717C301.182 180.868 294.579 184.54 293.952 186.977C293.629 188.259 293.883 190.073 294.194 191.511C298.78 196.227 304.682 199.982 311.401 202.885C312.673 203.437 314.687 202.457 314.699 201.262C314.709 200.478 314.694 199.594 314.637 198.658C314.459 195.441 317.459 192.008 319.357 190.934C321.298 189.876 316.702 195.52 317.013 197.432C317.382 199.375 320.025 203.881 320.974 205.365C321.401 206.037 322.369 206.599 323.317 207.012C328.173 208.345 333.169 209.348 337.996 210.091C339.824 210.374 342.128 209.249 342.329 207.91C342.457 207.08 342.25 206.191 341.317 205.445C338.778 203.402 338.591 201.815 339.981 201.074C341.378 200.329 340.58 201.495 342.654 203.918C344.169 205.68 345.103 207.008 344.972 208.799C344.87 210.147 346.127 211.146 348.114 211.333C354.06 211.89 359.222 212.082 362.71 212.145C365.328 212.193 368.137 210.789 368.768 209.063C369.723 206.479 370.965 202.401 371.592 197.299C371.255 197.02 371.029 196.832 370.693 196.554C366.964 196.393 365.205 195.289 362.804 193.329C360.205 191.197 358.589 191.431 359.835 190.654C361.078 189.874 363.017 190.477 365.061 192.842C365.989 193.92 367.486 194.276 368.848 194.342C370.402 194.418 371.951 193.379 371.987 192.257C372.092 189.162 371.95 185.813 371.48 182.302L371.479 182.303C371.489 182.306 370.998 179.24 369.287 178.012C367.57 176.793 362.517 173.235 360.283 172.315C358.017 171.427 350.502 173.423 352.143 172.191C353.778 170.977 358.362 169.594 362.221 170.809C362.934 171.035 363.629 171.242 364.289 171.429C366.391 172.025 368.708 170.226 368.056 168.452C366.162 163.21 363.535 157.916 360.224 152.882C359.821 152.269 359.257 151.764 358.587 151.4C356.939 150.506 354.252 149.164 352.397 148.982C349.609 148.732 344.428 153.599 339.814 153.453C335.244 153.336 331.526 155.165 333.959 151.687C336.313 148.193 342.935 150.141 346.437 147.284C348.811 145.325 348.466 141.735 347.992 139.683C347.776 138.733 347.265 137.87 346.524 137.231C342.279 133.572 337.585 130.392 332.501 127.836C331.31 127.239 330.004 128.127 330.022 129.501C330.054 131.498 330.404 134.051 329.582 135.218C328.263 137.073 326.531 135.391 327.932 133.168C329.345 130.939 328.086 125.472 328.077 125.471C328.017 125.409 327.955 125.346 327.895 125.284C318.513 122.281 308.982 120.132 298.056 120.215C296.032 120.228 294.609 122.529 295.209 124.897C295.394 125.615 295.643 126.298 296.027 126.842C297.414 128.798 297.023 130.706 296.653 131.665C291.987 123.69 287.446 115.581 283.06 107.36C282.349 106.033 281.013 105.68 280.204 106.667C279.485 107.544 279.531 109.195 280.252 110.326C285.107 117.9 290.238 125.32 295.644 132.577C294.733 132.782 293.065 132.794 291.771 130.839C291.406 130.289 290.921 129.842 290.38 129.477C288.615 128.291 286.522 129.356 286.042 131.623C283.743 142.488 282.472 151.794 282.562 159.962C282.572 161.056 283.327 161.928 284.386 161.994C285.073 162.037 285.737 161.974 286.298 161.739C288.722 160.717 289.595 162.88 287.499 163.854C286.807 164.176 285.858 164.116 284.86 163.936C283.795 163.745 282.767 164.739 282.873 165.83C283.484 171.996 285.009 177.431 287.467 182.203C289.35 182.712 291.961 182.94 294.103 181.539ZM346.27 170.258C342.031 170.314 340.539 168.979 342.551 168.239C343.011 168.095 349.522 165.138 351.274 166.386C353.047 167.657 350.535 170.195 346.27 170.258ZM316.251 136.152C317.672 132.561 318.03 131.338 319.705 130.25C321.358 129.149 322.716 131.259 321.907 134.691C321.09 138.131 317.279 140.447 317.283 140.439C315.915 141.421 314.804 139.726 316.251 136.152ZM320.336 145.552C320.343 145.556 322.852 143.737 325.33 144.222C327.805 144.712 330.475 146.485 329.273 148.493C328.053 150.494 325.449 148.537 323.622 148.053C321.774 147.571 318.488 146.493 320.336 145.552ZM330.501 159.907C330.494 159.905 333.662 161.138 337.085 159.826C340.517 158.541 346.364 154.828 349.407 155.232C352.479 155.655 351.05 157.422 348.38 157.713C345.72 158.002 342.97 159.009 339.612 161.151C336.236 163.291 332.592 163.095 330.521 161.745C328.445 160.392 328.681 159.474 330.501 159.907ZM345.723 181.975C345.17 180.565 344.962 179.506 344.962 179.506C344.957 179.507 348.983 180.381 351.908 182.435C354.841 184.491 354.126 186.533 350.875 185.294C347.648 184.048 346.278 183.382 345.723 181.975ZM321.825 178.483C321.408 180.566 321.72 181.401 320.844 183.755C319.946 186.102 317.767 185.759 317.415 183.548C317.064 181.342 319.694 178.307 319.684 178.302C320.834 176.64 322.221 176.392 321.825 178.483ZM293.981 150.072C294.532 145.911 298.982 142.626 298.985 142.61C299.588 142.109 300.969 142.636 300.106 144.194C299.246 145.752 298.91 149.52 297.251 151.765C295.582 154.008 293.407 154.245 293.981 150.072ZM312.497 166.956C315.136 164.597 314.12 168.12 314.637 171.582C315.153 175.041 311.888 176.796 308.378 180.668C304.86 184.536 303.181 188.336 302.031 186.596C300.924 184.86 305.159 178.979 308.946 176.004C312.833 173.053 312.513 166.958 312.497 166.956Z" fill="#4DAA15"/>
<mask id="mask1_19_342" style="mask-type:luminance" maskUnits="userSpaceOnUse" x="279" y="106" width="94" height="107">
<path d="M294.103 181.539C298.078 178.962 298.038 172.587 302.225 171.036C306.454 169.458 303.583 172.59 302.374 176.717C301.182 180.868 294.579 184.54 293.952 186.977C293.629 188.259 293.883 190.073 294.194 191.511C298.78 196.227 304.682 199.982 311.401 202.885C312.673 203.437 314.687 202.457 314.699 201.262C314.709 200.478 314.694 199.594 314.637 198.658C314.459 195.441 317.459 192.008 319.357 190.934C321.298 189.876 316.702 195.52 317.013 197.432C317.382 199.375 320.025 203.881 320.974 205.365C321.401 206.037 322.369 206.599 323.317 207.012C328.173 208.345 333.169 209.348 337.996 210.091C339.824 210.374 342.128 209.249 342.329 207.91C342.457 207.08 342.25 206.191 341.317 205.445C338.778 203.402 338.591 201.815 339.981 201.074C341.378 200.329 340.58 201.495 342.654 203.918C344.169 205.68 345.103 207.008 344.972 208.799C344.87 210.147 346.127 211.146 348.114 211.333C354.06 211.89 359.222 212.082 362.71 212.145C365.328 212.193 368.137 210.789 368.768 209.063C369.723 206.479 370.965 202.401 371.592 197.299C371.255 197.02 371.029 196.832 370.693 196.554C366.964 196.393 365.205 195.289 362.804 193.329C360.205 191.197 358.589 191.431 359.835 190.654C361.078 189.874 363.017 190.477 365.061 192.842C365.989 193.92 367.486 194.276 368.848 194.342C370.402 194.418 371.951 193.379 371.987 192.257C372.092 189.162 371.95 185.813 371.48 182.302L371.479 182.303C371.489 182.306 370.998 179.24 369.287 178.012C367.57 176.793 362.517 173.235 360.283 172.315C358.017 171.427 350.502 173.423 352.143 172.191C353.778 170.977 358.362 169.594 362.221 170.809C362.934 171.035 363.629 171.242 364.289 171.429C366.391 172.025 368.708 170.226 368.056 168.452C366.162 163.21 363.535 157.916 360.224 152.882C359.821 152.269 359.257 151.764 358.587 151.4C356.939 150.506 354.252 149.164 352.397 148.982C349.609 148.732 344.428 153.599 339.814 153.453C335.244 153.336 331.526 155.165 333.959 151.687C336.313 148.193 342.935 150.141 346.437 147.284C348.811 145.325 348.466 141.735 347.992 139.683C347.776 138.733 347.265 137.87 346.524 137.231C342.279 133.572 337.585 130.392 332.501 127.836C331.31 127.239 330.004 128.127 330.022 129.501C330.054 131.498 330.404 134.051 329.582 135.218C328.263 137.073 326.531 135.391 327.932 133.168C329.345 130.939 328.086 125.472 328.077 125.471C328.017 125.409 327.955 125.346 327.895 125.284C318.513 122.281 308.982 120.132 298.056 120.215C296.032 120.228 294.609 122.529 295.209 124.897C295.394 125.615 295.643 126.298 296.027 126.842C297.414 128.798 297.023 130.706 296.653 131.665C291.987 123.69 287.446 115.581 283.06 107.36C282.349 106.033 281.013 105.68 280.204 106.667C279.485 107.544 279.531 109.195 280.252 110.326C285.107 117.9 290.238 125.32 295.644 132.577C294.733 132.782 293.065 132.794 291.771 130.839C291.406 130.289 290.921 129.842 290.38 129.477C288.615 128.291 286.522 129.356 286.042 131.623C283.743 142.488 282.472 151.794 282.562 159.962C282.572 161.056 283.327 161.928 284.386 161.994C285.073 162.037 285.737 161.974 286.298 161.739C288.722 160.717 289.595 162.88 287.499 163.854C286.807 164.176 285.858 164.116 284.86 163.936C283.795 163.745 282.767 164.739 282.873 165.83C283.484 171.996 285.009 177.431 287.467 182.203C289.35 182.712 291.961 182.94 294.103 181.539ZM346.27 170.258C342.031 170.314 340.539 168.979 342.551 168.239C343.011 168.095 349.522 165.138 351.274 166.386C353.047 167.657 350.535 170.195 346.27 170.258ZM316.251 136.152C317.672 132.561 318.03 131.338 319.705 130.25C321.358 129.149 322.716 131.259 321.907 134.691C321.09 138.131 317.279 140.447 317.283 140.439C315.915 141.421 314.804 139.726 316.251 136.152ZM320.336 145.552C320.343 145.556 322.852 143.737 325.33 144.222C327.805 144.712 330.475 146.485 329.273 148.493C328.053 150.494 325.449 148.537 323.622 148.053C321.774 147.571 318.488 146.493 320.336 145.552ZM330.501 159.907C330.494 159.905 333.662 161.138 337.085 159.826C340.517 158.541 346.364 154.828 349.407 155.232C352.479 155.655 351.05 157.422 348.38 157.713C345.72 158.002 342.97 159.009 339.612 161.151C336.236 163.291 332.592 163.095 330.521 161.745C328.445 160.392 328.681 159.474 330.501 159.907ZM345.723 181.975C345.17 180.565 344.962 179.506 344.962 179.506C344.957 179.507 348.983 180.381 351.908 182.435C354.841 184.491 354.126 186.533 350.875 185.294C347.648 184.048 346.278 183.382 345.723 181.975ZM321.825 178.483C321.408 180.566 321.72 181.401 320.844 183.755C319.946 186.102 317.767 185.759 317.415 183.548C317.064 181.342 319.694 178.307 319.684 178.302C320.834 176.64 322.221 176.392 321.825 178.483ZM293.981 150.072C294.532 145.911 298.982 142.626 298.985 142.61C299.588 142.109 300.969 142.636 300.106 144.194C299.246 145.752 298.91 149.52 297.251 151.765C295.582 154.008 293.407 154.245 293.981 150.072ZM312.497 166.956C315.136 164.597 314.12 168.12 314.637 171.582C315.153 175.041 311.888 176.796 308.378 180.668C304.86 184.536 303.181 188.336 302.031 186.596C300.924 184.86 305.159 178.979 308.946 176.004C312.833 173.053 312.513 166.958 312.497 166.956Z" fill="white"/>
</mask>
<g mask="url(#mask1_19_342)">
<path opacity="0.1" d="M379.912 215.474C379.912 215.474 372.395 212.241 357.492 201.379C342.588 190.517 335.907 185.026 337.474 179.343C339.041 173.659 341.497 175.15 333.175 168.637C324.854 162.126 314.242 156.005 310.116 147.259C305.99 138.512 300.215 138.944 292.973 127.068C285.731 115.192 278.359 103.32 278.359 103.32C278.359 103.32 289.901 104.164 295.752 116.457C295.752 116.457 332.238 106.945 362.154 149.534C392.07 192.124 379.912 215.474 379.912 215.474Z" fill="black"/>
</g>
<path d="M326.039 226.584C326.677 226.909 327.442 226.689 327.748 226.091C328.053 225.493 327.784 224.743 327.146 224.418C326.508 224.092 325.743 224.312 325.438 224.91C325.132 225.509 325.401 226.258 326.039 226.584Z" fill="#24AB42"/>
<path d="M105.202 112.429C105.839 112.755 106.604 112.535 106.91 111.936C107.215 111.338 106.946 110.589 106.308 110.263C105.671 109.937 104.906 110.158 104.6 110.756C104.294 111.354 104.564 112.103 105.202 112.429Z" fill="#F4F4F4"/>
<path d="M83.4622 67.1189C84.1 67.4448 84.8648 67.2242 85.1704 66.626C85.4761 66.0279 85.2067 65.2789 84.5689 64.953C83.9311 64.6271 83.1663 64.8477 82.8606 65.4458C82.555 66.0439 82.8244 66.793 83.4622 67.1189Z" fill="#F4F4F4"/>
<path d="M123.905 141.718C124.543 142.044 125.308 141.823 125.613 141.225C125.919 140.627 125.65 139.878 125.012 139.552C124.374 139.226 123.609 139.447 123.304 140.045C122.998 140.643 123.267 141.392 123.905 141.718Z" fill="#F4F4F4"/>
<path d="M107.327 72.6841C107.021 73.2822 106.256 73.5028 105.618 73.177C104.98 72.8511 104.711 72.102 105.017 71.5039C105.322 70.9058 106.087 70.6851 106.725 71.011C107.363 71.3369 107.632 72.086 107.327 72.6841Z" fill="#F4F4F4"/>
<path d="M268.656 160.429C269.294 160.755 270.059 160.534 270.365 159.936C270.67 159.338 270.401 158.589 269.763 158.263C269.125 157.937 268.361 158.158 268.055 158.756C267.749 159.354 268.019 160.103 268.656 160.429Z" fill="#328930"/>
<path d="M236.212 196.472C236.849 196.798 237.614 196.577 237.92 195.979C238.226 195.381 237.956 194.632 237.318 194.306C236.681 193.98 235.916 194.201 235.61 194.799C235.304 195.397 235.574 196.146 236.212 196.472Z" fill="#328930"/>
<path d="M379.595 168.442C380.233 168.768 380.998 168.547 381.303 167.949C381.609 167.351 381.34 166.602 380.702 166.276C380.064 165.95 379.299 166.17 378.994 166.769C378.688 167.367 378.957 168.116 379.595 168.442Z" fill="#328930"/>
<path d="M278.392 194.294C277.722 195.604 276.048 196.088 274.65 195.374C273.253 194.66 272.664 193.019 273.333 191.709C274.002 190.4 275.677 189.916 277.074 190.63C278.471 191.343 279.061 192.985 278.392 194.294Z" fill="#24AB42"/>
<path d="M173.222 106.354C172.552 107.664 170.878 108.147 169.48 107.433C168.083 106.719 167.493 105.079 168.163 103.769C168.832 102.458 170.508 101.976 171.904 102.689C173.3 103.403 173.891 105.044 173.222 106.354Z" fill="#F4F4F4"/>
<path d="M97.5543 97.9469C96.8848 99.2572 95.2103 99.7403 93.813 99.0264C92.4157 98.3124 91.826 96.6724 92.4955 95.3621C93.165 94.0518 94.8395 93.5687 96.2368 94.2826C97.6341 94.9966 98.2233 96.6375 97.5543 97.9469Z" fill="#F4F4F4"/>
<path d="M216.047 187.433C215.36 188.777 213.641 189.273 212.207 188.541C210.774 187.809 210.169 186.124 210.855 184.78C211.542 183.436 213.262 182.94 214.695 183.672C216.128 184.405 216.734 186.089 216.047 187.433Z" fill="#328930"/>
<path d="M271.089 214.242C270.402 215.586 268.682 216.082 267.249 215.349C265.815 214.617 265.21 212.933 265.897 211.589C266.583 210.245 268.303 209.749 269.736 210.481C271.17 211.213 271.775 212.897 271.089 214.242Z" fill="#328930"/>
<path d="M306.485 117.399C306.175 117.55 315.361 148.883 313.614 157.587C311.6 166.467 305.866 158.764 304.648 145.683C303.54 135.321 306.339 117.408 306.485 117.399Z" fill="#328930"/>
<path d="M290.294 129.552C289.952 129.716 297.062 159.063 295.114 167.055C292.854 175.248 287.869 167.973 287.362 155.775C286.825 146.113 290.165 129.555 290.294 129.552Z" fill="#328930"/>
<path d="M273.67 143.264C273.425 143.405 281.422 168.514 280.07 175.679C278.495 183.01 273.838 176.906 272.742 166.282C271.774 157.871 273.576 143.272 273.67 143.264Z" fill="#328930"/>
<path d="M264.039 153.037C263.678 153.186 266.366 179.795 263.731 186.697C260.745 193.794 257.312 186.9 258.408 175.996C259.164 167.35 263.944 153.023 264.039 153.037Z" fill="#328930"/>
<path d="M249.726 169.011C249.616 169.066 252.025 184.134 250.472 188.255C248.811 192.443 246.867 188.512 247.285 182.258C247.582 177.297 249.697 169.009 249.726 169.011Z" fill="#328930"/>
<path d="M249.667 168.965C249.698 168.844 233.856 170.498 230.092 173.887C226.369 177.152 230.93 177.321 237.016 174.857C241.848 172.861 249.659 168.936 249.667 168.965Z" fill="#328930"/>
<path d="M306.564 117.502C306.814 117.275 276.894 100.283 265.282 102.492C253.948 104.522 261.859 110.356 276.124 112.905C287.53 114.818 306.619 117.379 306.564 117.502Z" fill="#328930"/>
<path d="M290.103 129.334C290.33 129.041 259.946 118.711 249.751 122.589C239.818 126.199 248.152 130.027 261.597 130.045C272.329 129.94 290.13 129.218 290.103 129.334Z" fill="#328930"/>
<path d="M273.774 143.366C273.928 143.133 247.128 135.975 238.654 139.77C230.36 143.35 237.73 146.29 249.293 145.616C258.509 144.991 273.788 143.277 273.774 143.366Z" fill="#328930"/>
<path d="M264.106 153.099C264.228 152.727 235.73 154.047 228.634 160.236C221.691 166.045 229.87 166.35 240.931 162.307C249.722 158.98 264.089 153.007 264.106 153.099Z" fill="#328930"/>
<path d="M239.06 182.529C262.04 151.595 291.527 125.913 325.658 106.99C325.392 106.583 325.129 106.175 324.863 105.767C324.566 105.308 324.267 104.849 323.969 104.39C290.043 124.384 261.176 150.997 239.06 182.529Z" fill="#328930"/>
<path d="M366.405 105.583C366.732 105.468 386.234 132.511 394.491 137.055C403.069 141.53 400.57 132.482 390.701 122.999C382.977 115.389 366.51 105.488 366.405 105.583Z" fill="#F4F4F4"/>
<path d="M387.021 102.429C387.381 102.301 406.63 126.599 414.44 130.533C422.619 134.383 419.975 126.136 410.357 117.727C402.827 110.974 387.108 102.343 387.021 102.429Z" fill="#F4F4F4"/>
<path d="M366.438 105.705C366.087 105.727 371.987 73.8389 381.461 67.2792C390.605 60.7919 390.139 70.1094 382.795 81.6453C376.821 90.7867 366.301 105.661 366.438 105.705Z" fill="#F4F4F4"/>
<path d="M386.968 102.154C386.578 102.117 398.222 74.3091 408.121 69.8296C417.63 65.3542 415.248 73.6386 406.379 82.9351C399.204 90.2792 386.855 102.096 386.968 102.154Z" fill="#F4F4F4"/>
<path d="M464.098 102.044C423.673 97.4786 383.236 100.877 345.246 111.948C345.088 111.496 344.93 111.043 344.772 110.592C344.594 110.083 344.416 109.573 344.239 109.064C382.968 98.8417 423.755 96.4875 464.098 102.044Z" fill="#F4F4F4"/>
<path d="M339.623 116.447C317.58 116.624 305.997 125.501 305.997 125.501C305.997 125.501 316.593 132.746 335.236 133.862C335.09 134.011 334.945 134.149 334.797 134.302C317.37 152.346 315.898 169.605 315.898 169.605C315.898 169.605 333.612 167 351.039 148.956C351.395 148.587 351.73 148.224 352.061 147.861C353.978 169.964 364.169 182.026 364.169 182.026C364.169 182.026 373.088 169.451 371.937 146.727C389.913 162.747 406.277 164.862 406.277 164.862C406.277 164.862 403.02 149.475 385.617 133.382C402.511 131.83 411.348 125.068 411.348 125.068C411.348 125.068 399.256 116.791 378.241 116.959C367.341 117.046 362.647 120.462 360.671 122.943L359.898 97.0813C359.869 96.101 359.003 95.2967 357.987 95.3049C356.949 95.3127 356.179 96.1648 356.307 97.1643L359.666 123.436C357.812 120.908 352.659 116.344 339.623 116.447ZM343.435 128.318C342.28 128.327 341.289 127.432 341.218 126.319C341.148 125.205 342.027 124.295 343.181 124.286C344.336 124.277 345.327 125.172 345.398 126.285C345.467 127.4 344.588 128.31 343.435 128.318ZM347.231 139.986C346.462 139.992 345.801 139.395 345.754 138.653C345.707 137.911 346.293 137.304 347.062 137.298C347.831 137.292 348.492 137.889 348.539 138.631C348.587 139.374 348.001 139.98 347.231 139.986ZM375.864 136.53C377.633 136.515 379.155 137.887 379.261 139.595C379.368 141.302 378.02 142.698 376.251 142.712C374.481 142.726 372.96 141.353 372.853 139.646C372.747 137.94 374.094 136.544 375.864 136.53ZM369.437 125.153C370.668 125.143 371.726 126.097 371.801 127.286C371.875 128.473 370.938 129.443 369.706 129.454C368.475 129.463 367.418 128.509 367.343 127.321C367.269 126.133 368.206 125.162 369.437 125.153ZM361.03 144.448C363.184 144.43 365.036 146.101 365.166 148.179C365.296 150.258 363.655 151.957 361.501 151.973C359.346 151.991 357.495 150.32 357.365 148.241C357.236 146.163 358.876 144.464 361.03 144.448ZM360.275 134.638C360.308 135.157 359.897 135.582 359.359 135.586C358.821 135.591 358.357 135.173 358.325 134.653C358.292 134.134 358.703 133.708 359.242 133.705C359.78 133.7 360.244 134.118 360.275 134.638Z" fill="#328930"/>
<g filter="url(#filter0_d_19_342)">
<path fill-rule="evenodd" clip-rule="evenodd" d="M-8.50271 -46.4102C11.4789 -89.7095 78.7609 -123.688 131.083 -131.568C183.088 -139.401 249.814 -133.763 299.014 -104.747C347.803 -75.9729 388.96 -15.6101 409.623 32.7034C430.969 82.6142 469.645 125.738 434.002 159.5C362.581 115.312 295.502 140.5 241.502 159.5C187.502 178.5 112.002 188.5 44.0021 166.5C-23.9978 144.5 -26.9979 145.03 -48.9978 106C-62.7203 60.8809 -26.5456 -7.31191 -8.50271 -46.4102Z" fill="white"/>
</g>
<path d="M96.6343 99.9381C96.6431 99.9346 96.6518 99.9276 96.6606 99.9223C96.6658 99.9188 96.6707 99.9171 96.6742 99.9136V99.9105M95.9235 97.0135L95.9064 96.9427C95.8959 96.951 95.8859 96.9602 95.8771 96.9685L95.8684 96.9755C95.8837 96.989 95.8994 97.003 95.9134 97.0183C95.9187 97.0257 95.9252 97.0327 95.9309 97.0393L95.9235 97.0135Z" fill="url(#paint0_linear_19_342)"/>
<path d="M96.6343 99.9381C96.6343 99.9398 96.6361 99.9433 96.6361 99.9451C96.0678 100.246 95.4607 100.411 94.752 100.525C93.6982 100.696 92.3408 100.847 90.6816 100.975C87.4358 103.671 83.7223 106.373 79.724 107.833C77.9489 108.482 75.637 108.995 73.9887 107.834C70.7258 105.539 75.5893 103.132 77.3837 102.368C78.6103 101.847 79.8373 101.326 81.0582 100.791C82.0617 100.352 83.9021 99.0585 84.9769 99.0585C85.3203 99.0585 85.5556 99.1279 85.6825 99.2682C85.8089 99.408 85.8522 99.5846 85.8141 99.7995C85.7118 100.382 85.2109 100.871 84.3111 101.269C83.4113 101.668 82.9467 101.952 82.9156 102.125C83.0285 102.34 83.1392 102.447 83.2503 102.447C86.343 102.447 89.8443 97.072 88.6899 94.3122C88.312 93.4085 87.6947 92.3209 86.8421 91.0516C85.724 89.3338 84.228 88.0007 82.9331 86.432C80.1803 83.1001 78.5731 78.7593 80.5079 74.6694C81.6729 72.2036 83.4808 70.0581 85.5574 68.3094C89.9034 64.6498 95.0735 61.9852 100.439 60.1569C101.197 59.8991 101.757 59.7711 102.124 59.7711C102.835 59.7711 103.331 59.9857 103.61 60.4169C103.889 60.8465 103.957 61.4713 103.813 62.2884C103.653 63.1925 103.452 63.9301 103.211 64.4999C102.97 65.0715 102.715 65.4525 102.443 65.6461C99.5451 67.6683 97.2288 69.1925 95.4974 70.2141C93.7656 71.2357 92.5867 71.7465 91.9629 71.7465C91.661 71.7465 91.4392 71.6617 91.2971 71.4887C91.1549 71.317 91.1151 71.0592 91.1755 70.7144C91.2778 70.1328 91.8763 69.4935 92.9681 68.7944C94.0622 68.0944 94.6291 67.5613 94.6724 67.196L94.4156 67.002C94.308 67.002 94.1781 67.033 94.0276 67.099C93.8763 67.1632 93.7153 67.2497 93.5451 67.3568C91.3802 68.8862 89.7092 70.2573 88.5372 71.473C87.364 72.6886 86.6965 73.7478 86.5368 74.6519C86.4121 75.362 86.4086 76.0843 86.5267 76.8149C86.6462 77.5472 86.8732 78.3005 87.2113 79.0744C87.4607 79.6127 87.8404 80.297 88.3518 81.1246C88.8631 81.954 89.5219 82.9498 90.3303 84.1121C93.1177 88.1484 95.5919 91.1184 94.682 96.2523C94.3535 98.14 97.5801 95.4107 97.9502 95.1162C99.8522 93.6043 102.04 92.0115 103.636 90.1964C103.913 89.8516 104.205 89.6043 104.511 89.4536C104.818 89.3028 105.111 89.2281 105.392 89.2281C106.146 89.2281 106.748 89.4173 107.198 89.7926C107.649 90.1702 107.893 90.7348 107.933 91.4881C107.966 92.1549 107.987 92.8265 107.997 93.5051C108.006 94.1824 107.994 94.8662 107.959 95.5553C108.034 95.9866 108.102 96.6359 108.164 97.5085C108.224 98.3799 108.297 98.8802 108.384 99.0099C108.453 99.2245 108.587 99.3805 108.784 99.4775C108.983 99.5745 109.244 99.6226 109.568 99.6226C109.956 99.6226 110.365 99.5535 110.801 99.4133C111.234 99.2734 111.696 99.0309 112.189 98.6862C116.578 95.4028 120.672 91.8031 125.031 88.477C127.36 86.6985 129.734 84.9564 132.29 83.5144C133.93 82.5893 135.255 82.1253 136.269 82.1253C136.829 82.1253 137.222 82.245 137.449 82.4805C137.676 82.7178 137.752 83.0516 137.678 83.4812C137.598 83.9334 137.445 84.3315 137.224 84.6763C137.002 85.0206 136.697 85.3116 136.31 85.5467C132.569 87.8412 129.572 91.0415 126.318 93.9088C125.464 94.6622 124.34 95.5658 122.948 96.6202C122.77 96.771 122.441 97.1157 121.957 97.6541C121.475 98.1911 120.843 98.9025 120.063 99.7838L120.238 100.074C120.738 99.9245 121.279 99.6663 121.86 99.2992C122.442 98.9335 123.099 98.4506 123.833 97.8446C126.227 95.9652 128.747 93.7284 131.357 92.1824C132.32 91.6109 133.168 91.3251 133.901 91.3251C134.353 91.3251 134.667 91.5034 134.842 91.8586C135.015 92.2134 135.06 92.747 134.979 93.457C134.745 94.5337 134.542 95.5658 134.367 96.5564C134.225 97.2455 134.303 97.8638 134.605 98.4126C134.906 98.9615 135.381 99.235 136.028 99.235C136.222 99.235 136.42 99.1817 136.623 99.0733C139.475 97.5667 141.425 94.4852 143.82 92.3742C144.881 91.4396 145.874 90.605 146.801 89.8744C147.28 89.4863 147.864 88.986 148.556 88.373C149.97 87.1158 151.273 85.9522 153.146 85.4086C154.721 84.9498 155.278 86.0182 155.032 87.4208C154.924 88.023 154.761 88.6745 154.541 89.3736C154.321 90.0736 154.059 90.7885 153.758 91.5191C153.461 92.1007 153.201 92.6604 152.978 93.1988C152.95 93.3495 152.964 93.4623 153.014 93.5383C153.066 93.6126 153.166 93.6506 153.317 93.6506C153.668 93.5003 154.387 92.9615 155.477 92.0369C156.566 91.1105 158.012 89.8206 159.813 88.1619C161.356 86.7418 162.674 85.6821 163.766 84.9826C164.86 84.283 165.698 83.9334 166.279 83.9334C166.902 83.9334 167.318 84.165 167.528 84.6273C167.738 85.0914 167.762 85.7739 167.603 86.6775C167.37 87.9902 167.05 89.2543 166.643 90.4699C166.234 91.6869 165.694 92.854 165.023 93.9731C164.898 94.1894 164.812 94.3712 164.765 94.5215C164.716 94.6722 164.682 94.8129 164.657 94.9423C164.632 95.093 164.737 95.2315 164.972 95.3613C165.171 95.211 165.408 94.996 165.684 94.7159C165.96 94.4367 166.286 94.0819 166.662 93.6506C167.23 93.242 167.797 92.8335 168.364 92.4232C168.931 92.0142 169.542 91.5951 170.201 91.1643C170.886 90.6915 171.564 90.3314 172.232 90.0832C177.562 88.1073 175.873 97.2665 179.325 97.2665C179.432 97.2665 179.545 97.2385 179.663 97.1848C179.779 97.131 179.9 97.062 180.023 96.9755C180.332 98.0298 180.576 99.02 180.758 99.9451C179.877 100.548 179.108 101.006 178.449 101.318C177.792 101.63 177.236 101.786 176.785 101.786C175.3 101.786 173.935 100.823 172.692 98.8955C171.449 96.9702 170.409 96.0076 169.57 96.0076C168.449 96.0076 166.296 97.6593 163.108 100.963C159.92 104.265 158.003 105.917 157.356 105.917C157.034 105.917 156.608 105.886 156.08 105.82C155.919 105.756 155.815 105.623 155.765 105.417C155.715 105.212 155.715 104.97 155.763 104.691C155.82 104.368 155.961 103.943 156.182 103.415C156.405 102.888 156.687 102.271 157.027 101.559C157.467 100.655 157.821 99.9346 158.088 99.3962C158.355 98.8592 158.517 98.4817 158.578 98.2671C158.693 97.9866 158.88 97.4373 159.143 96.6202C159.405 95.8031 159.754 94.7159 160.187 93.3596C160.228 93.1223 160.197 92.9405 160.09 92.8108C159.984 92.6827 159.844 92.6168 159.672 92.6168C159.521 92.6168 159.346 92.6653 159.145 92.7623C158.946 92.8597 158.708 93.0153 158.433 93.2298C158.124 93.5103 157.79 93.7913 157.429 94.0696C157.067 94.3502 156.495 94.7487 155.715 95.2647C154.808 96.1251 153.884 97.003 152.939 97.8948C151.995 98.7884 151.034 99.6873 150.057 100.591C148.498 102.097 147.273 103.21 146.38 103.933C145.487 104.653 144.934 105.013 144.719 105.013C144.071 105.013 143.593 104.939 143.284 104.788C142.975 104.638 142.849 104.41 142.901 104.109C143.028 103.4 143.671 101.921 144.836 99.6715C145.999 97.422 146.662 95.8341 146.825 94.9095C146.851 94.7587 146.825 94.6342 146.746 94.5394C146.666 94.4419 146.55 94.3939 146.399 94.3939C146.139 94.3939 145.806 94.5394 145.399 94.8282C144.991 95.1192 144.504 95.5763 143.941 96.2012C143.577 96.5459 143.14 96.9427 142.629 97.3945C141.13 98.7181 139.748 100.08 138.255 101.349C137.685 101.834 137.092 102.292 136.478 102.722C135.745 103.217 135.053 103.588 134.407 103.836C133.76 104.083 133.134 104.206 132.533 104.206C131.13 104.206 130.125 103.808 129.511 103.012C128.898 102.217 128.669 101.01 128.825 99.3962C128.858 99.2018 128.867 99.0047 128.85 98.7989C128.83 98.5944 128.756 98.3847 128.621 98.1701C128.494 98.2772 128.355 98.3899 128.206 98.5092C128.056 98.6272 127.877 98.7827 127.671 98.9772C127.352 99.1917 126.955 99.4618 126.478 99.7838C126.001 100.106 125.441 100.493 124.802 100.946C123.911 101.722 123.164 102.355 122.559 102.85C121.955 103.346 121.525 103.701 121.272 103.916C120.776 104.282 120.211 104.648 119.575 105.013C118.941 105.38 118.234 105.756 117.454 106.144C116.959 106.381 116.538 106.568 116.19 106.708C115.843 106.849 115.593 106.918 115.443 106.918C114.408 106.918 113.688 106.666 113.281 106.16C112.875 105.654 112.766 104.875 112.951 103.819C113.054 103.238 113.276 102.684 113.617 102.156C113.957 101.63 114.42 101.119 115.002 100.624C115.072 100.414 115.124 100.236 115.158 100.087C114.779 100.395 114.307 100.742 113.745 101.124C113.097 101.566 112.322 102.077 111.423 102.657C109.4 103.967 107.594 104.901 105.106 104.425C101.93 103.819 102.527 99.7615 101.197 97.5348C101.114 97.3963 101.017 97.249 100.864 97.1918C100.731 97.1432 100.581 97.1747 100.444 97.2145C99.2608 97.5592 98.4528 98.5236 97.5582 99.3062C97.2551 99.571 96.9519 99.779 96.6361 99.9451C96.6448 99.9381 96.6518 99.9293 96.6606 99.9223C96.6658 99.9188 96.6707 99.9171 96.6742 99.9105" fill="url(#paint1_linear_19_342)"/>
<path d="M95.9241 97.0123L95.9309 97.0393C95.9252 97.0327 95.9187 97.0257 95.9134 97.0183C95.9171 97.0165 95.9205 97.0142 95.9241 97.0123Z" fill="url(#paint2_linear_19_342)"/>
<path d="M114.995 72.3473C114.786 72.1327 114.411 72.0253 113.872 72.0253C111.814 72.0253 109.199 74.2485 107.819 75.6564C106.83 76.6658 104.907 79.2487 106.667 80.4805C107.352 80.9603 108.276 80.9406 109.086 80.7317C110.65 80.3289 112.335 79.1901 113.149 77.7704C113.272 77.5559 113.46 77.2006 113.709 76.7056C113.957 76.2105 114.258 75.5751 114.611 74.8008C114.768 74.3923 114.966 73.8867 115.202 73.2841C115.275 72.8751 115.205 72.5618 114.995 72.3473ZM95.8684 96.9755C95.8837 96.989 95.8994 97.003 95.9134 97.0183Z" fill="url(#paint3_linear_19_342)"/>
<path d="M210.368 82.2223C210.429 82.4893 210.777 82.5531 211.05 82.5448C212.752 82.4941 214.272 81.6551 215.938 81.4305C218.482 81.088 223.363 79.9156 225.656 81.5594C226.197 81.9466 226.392 82.4591 226.24 83.0967C226.21 83.2243 226.117 83.5476 225.961 84.0654C225.607 85.2457 225.318 86.3651 224.404 87.2622C224.282 87.3824 224.145 87.4995 223.979 87.5371C223.821 87.5725 223.658 87.5318 223.502 87.4925C220.818 86.8043 218.044 86.5539 215.279 86.713C213.313 86.8266 209.96 86.595 208.346 87.8814C207.266 88.7418 206.964 90.1375 206.618 91.399C205.159 96.7181 202.964 101.812 201.689 107.184C201.488 108.031 200.906 109.096 200.005 109.318C198.675 109.647 197.847 108.552 197.888 107.351C197.89 107.157 197.942 106.798 198.045 106.276C198.147 105.754 198.302 105.057 198.508 104.185C199.238 101.108 200.063 98.0539 200.9 95.0048C201.288 93.5921 201.625 92.1492 202.078 90.7558C202.342 89.9421 203.092 88.7462 202.788 87.8631C202.742 87.7311 202.645 87.6608 202.494 87.6524C202.376 87.6892 202.241 87.7294 202.089 87.7744C201.936 87.8198 201.777 87.8692 201.611 87.9242C201.478 87.9382 201.306 87.9714 201.098 88.0243C200.889 88.0767 200.634 88.1379 200.334 88.2061L200.09 87.9976L200.069 87.673C200.006 86.7121 202.786 84.966 203.597 84.5168C203.864 84.4032 204.144 84.0746 204.437 83.5301C206.001 80.62 206.851 77.0696 207.992 73.9742C209.688 69.3721 212.998 64.683 217.48 62.4091C220.871 60.6883 227.162 59.7143 230.51 61.9865C231.083 62.3754 231.284 62.9317 231.112 63.6544C231.016 64.0586 230.881 64.5144 230.706 65.0217C230.531 65.5286 230.309 66.0765 230.039 66.6642C229.701 67.4425 229.389 68.0223 229.102 68.4042C228.816 68.787 228.549 68.9924 228.302 69.0212C227.803 68.7333 227.291 68.4615 226.763 68.2041C224.781 67.2384 221.597 67.2021 219.44 67.8488C215.137 69.1392 212.696 76.3286 211.156 80.0873L210.368 82.2223Z" fill="url(#paint4_linear_19_342)"/>
<path d="M243.252 99.3876C243.291 99.5746 243.326 99.7599 243.357 99.9447C243.366 99.9364 243.375 99.9295 243.383 99.9207L243.252 99.3876Z" fill="url(#paint5_linear_19_342)"/>
<path d="M261.179 95.5983C260.576 96.7086 259.89 97.5306 258.938 98.4613C258.012 99.5572 257.085 100.381 256.159 100.93C255.217 101.489 252.61 102.483 251.836 101.116C251.6 100.699 251.705 100.177 251.84 99.7171C252.288 98.183 252.984 96.5828 253.97 95.3099C255.07 93.8911 256.622 92.5942 258.24 91.8155C259.897 91.0189 262.326 90.9538 261.992 93.545C261.925 94.0707 261.693 94.5588 261.464 95.0373C261.371 95.233 261.276 95.4196 261.179 95.5983ZM234.671 84.9098C235.631 82.8128 237.026 80.7765 238.209 78.7888C239.771 76.1635 241.579 73.3621 244.047 71.5059C244.118 71.5457 244.149 71.5977 244.156 71.6597C244.16 71.6999 244.153 71.7449 244.139 71.7948C243.515 73.9577 242.563 75.9402 241.464 77.8969C240.369 79.8502 239.088 81.6907 237.746 83.4866C236.933 84.5742 235.9 86.2311 234.721 86.901C234.178 86.3767 234.39 85.5224 234.671 84.9098ZM312.714 98.6706C312.573 98.1043 312.476 97.5183 312.13 97.0984C310.966 97.8024 308.799 100.602 307.589 98.4124C307.286 97.864 307.208 97.2457 307.352 96.5561C307.525 95.566 307.73 94.5334 307.962 93.4572C308.045 92.7471 307.998 92.2136 307.825 91.8583C307.65 91.5035 307.337 91.3253 306.884 91.3253C306.153 91.3253 305.305 91.6106 304.344 92.1821C301.7 93.7517 299.185 95.8876 296.814 97.8465C296.082 98.4504 295.425 98.9337 294.845 99.2994C294.263 99.6664 293.722 99.9243 293.221 100.075L293.046 99.784C293.827 98.9026 294.458 98.1913 294.944 97.6525C298.928 93.2003 304.183 88.6602 309.293 85.5469C309.68 85.3118 309.985 85.0203 310.207 84.676C310.431 84.3312 310.581 83.9332 310.661 83.4813C310.737 83.0518 310.661 82.7175 310.434 82.4802C310.205 82.2447 309.812 82.1254 309.252 82.1254C308.239 82.1254 306.914 82.5895 305.274 83.5137C297.583 87.8505 290.977 93.8767 284.169 99.4292C283.64 99.86 283.159 100.198 282.728 100.446C282.298 100.693 281.941 100.817 281.662 100.817C281.532 100.817 281.435 100.785 281.371 100.721C281.306 100.655 281.286 100.57 281.305 100.461C281.449 99.6437 281.996 98.4333 282.947 96.8288C284.306 94.5387 285.382 91.9213 284.721 89.2213C284.229 87.2134 282.152 83.9332 279.793 83.9332C279.105 83.9332 278.141 84.3002 276.901 85.0308C275.662 85.7631 274.857 86.3967 274.482 86.9355C274.26 87.2549 274.648 88.0747 274.533 88.4557C274.227 89.4708 272.992 90.4408 272.279 91.1811C270.938 92.571 269.505 93.8666 268.045 95.1299C267.266 95.8041 265.844 97.6215 264.71 97.6215C264.537 97.6215 264.407 97.5625 264.32 97.4432C264.233 97.3252 264.171 97.1259 264.135 96.8454C264.384 96.6531 264.672 96.3416 264.994 95.9103C265.319 95.4795 265.646 94.9424 265.976 94.2966C266.272 93.7146 266.506 93.178 266.679 92.6829C266.853 92.1874 266.972 91.7565 267.038 91.3908C267.38 89.4533 267.241 88.0074 266.624 87.0483C266.007 86.0909 264.911 85.6124 263.339 85.6124C263.188 85.6124 262.828 85.6976 262.259 85.8706C261.69 86.0424 260.898 86.3124 259.886 86.6777L259.744 86.3867C260.068 85.8916 260.382 85.3979 260.685 84.9028C260.701 84.6882 260.597 84.52 260.369 84.4024C260.142 84.2827 259.792 84.2242 259.317 84.2242C258.887 84.2242 258.473 84.3107 258.076 84.4824C257.679 84.6554 257.282 84.891 256.886 85.192C256.53 85.4953 256.178 85.8068 255.831 86.1289C254.48 87.3843 252.925 88.3854 251.596 89.6818C248.895 92.3176 245.575 94.3412 242.674 96.7681C241.252 97.9575 239.579 99.1539 237.75 99.586C236.125 99.9701 234.212 99.6026 233.199 98.2765C232.289 97.0849 232.301 95.3881 232.84 93.9894C233.379 92.5911 234.367 91.4205 235.328 90.27C241.798 82.5187 247.93 74.0613 250.251 64.2392C250.409 63.5702 250.547 62.8532 250.309 62.2078C249.879 61.0437 248.349 60.612 247.164 60.9843C245.979 61.3561 245.076 62.3009 244.254 63.2307C237.202 71.2022 231.987 80.7848 229.123 91.0307C228.899 91.8313 228.681 92.6536 228.207 93.3362C227.188 94.8043 215.502 103.223 214.711 104.825C214.961 105.807 218.457 103.546 218.707 104.528C218.92 104.895 223.424 101.312 227.924 97.666C228.534 98.7388 228.184 100.091 228.436 101.298C228.803 103.048 230.467 104.322 232.226 104.65C233.986 104.979 235.806 104.513 237.447 103.801C239.686 102.83 241.721 101.392 243.383 99.6061C244.54 98.363 248.541 95.4331 246.864 99.1224C246.476 99.9728 246.239 100.655 246.146 101.173C245.923 102.442 246.214 103.593 247.023 104.627C248.526 106.546 251.117 106.329 253.195 105.634C254.315 105.259 255.385 104.73 256.392 104.118C256.877 103.823 259.574 102.197 259.435 101.689C259.553 102.12 259.752 102.453 260.033 102.69C260.316 102.927 260.702 103.045 261.2 103.045C261.629 103.045 262.082 102.953 262.557 102.771C268.359 100.551 271.826 94.8957 276.726 91.3585C277.639 90.7 278.713 90.6462 279.195 91.8098C279.445 92.4129 279.469 93.2855 279.266 94.4246C279.103 95.3514 278.795 96.3936 278.342 97.5568C277.889 98.7191 277.306 99.9776 276.593 101.334C276.432 101.635 276.25 101.931 276.049 102.222C275.846 102.511 275.655 102.797 275.478 103.077C275.241 103.443 275.047 103.782 274.894 104.094C274.742 104.405 274.645 104.681 274.603 104.916C274.497 105.519 274.646 105.955 275.052 106.224C275.456 106.494 276.111 106.627 277.016 106.627C277.607 106.456 278.141 106.23 278.623 105.95C280.435 104.96 281.994 104.083 283.303 103.318C284.614 102.554 285.682 101.904 286.508 101.367C286.907 101.066 287.251 100.796 287.54 100.56C287.76 100.38 287.961 100.218 288.143 100.075C288.109 100.226 288.057 100.409 287.985 100.624C287.403 101.119 286.942 101.63 286.6 102.156C286.259 102.685 286.037 103.238 285.935 103.818C285.75 104.875 285.858 105.654 286.266 106.16C286.671 106.665 287.391 106.918 288.426 106.918C288.577 106.918 288.826 106.849 289.174 106.709C292.585 105.336 294.866 103.003 297.785 100.946C298.426 100.494 298.984 100.106 299.461 99.784C299.938 99.4619 300.335 99.1919 300.654 98.9769C300.86 98.7829 301.039 98.6273 301.19 98.5094C301.339 98.3901 301.477 98.2773 301.604 98.1703C301.739 98.3848 301.816 98.5941 301.833 98.7986C301.85 99.0049 301.843 99.202 301.808 99.396C301.652 101.01 301.881 102.217 302.494 103.012C303.109 103.808 304.115 104.206 305.516 104.206C306.119 104.206 306.743 104.083 307.392 103.836C308.036 103.588 308.728 103.218 309.462 102.723C310.077 102.291 310.67 101.834 311.24 101.349C311.81 100.866 312.382 100.397 312.958 99.9448C312.915 99.5795 312.833 99.1539 312.714 98.6706Z" fill="url(#paint6_linear_19_342)"/>
</g>
<defs>
<filter id="filter0_d_19_342" x="-72.036" y="-150.773" width="540.533" height="353.785" filterUnits="userSpaceOnUse" color-interpolation-filters="sRGB">
<feFlood flood-opacity="0" result="BackgroundImageFix"/>
<feColorMatrix in="SourceAlpha" type="matrix" values="0 0 0 0 0 0 0 0 0 0 0 0 0 0 0 0 0 0 127 0" result="hardAlpha"/>
<feOffset dy="4"/>
<feGaussianBlur stdDeviation="10"/>
<feComposite in2="hardAlpha" operator="out"/>
<feColorMatrix type="matrix" values="0 0 0 0 0 0 0 0 0 0 0 0 0 0 0 0 0 0 0.25 0"/>
<feBlend mode="normal" in2="BackgroundImageFix" result="effect1_dropShadow_19_342"/>
<feBlend mode="normal" in="SourceGraphic" in2="effect1_dropShadow_19_342" result="shape"/>
</filter>
<linearGradient id="paint0_linear_19_342" x1="157.5" y1="-3" x2="247" y2="193.5" gradientUnits="userSpaceOnUse">
<stop stop-color="#DCAD4A"/>
<stop offset="1" stop-color="#A0813F"/>
</linearGradient>
<linearGradient id="paint1_linear_19_342" x1="157.5" y1="-3" x2="247" y2="193.5" gradientUnits="userSpaceOnUse">
<stop stop-color="#DCAD4A"/>
<stop offset="1" stop-color="#A0813F"/>
</linearGradient>
<linearGradient id="paint2_linear_19_342" x1="157.5" y1="-3" x2="247" y2="193.5" gradientUnits="userSpaceOnUse">
<stop stop-color="#DCAD4A"/>
<stop offset="1" stop-color="#A0813F"/>
</linearGradient>
<linearGradient id="paint3_linear_19_342" x1="157.5" y1="-3" x2="247" y2="193.5" gradientUnits="userSpaceOnUse">
<stop stop-color="#DCAD4A"/>
<stop offset="1" stop-color="#A0813F"/>
</linearGradient>
<linearGradient id="paint4_linear_19_342" x1="157.5" y1="-3" x2="247" y2="193.5" gradientUnits="userSpaceOnUse">
<stop stop-color="#DCAD4A"/>
<stop offset="1" stop-color="#A0813F"/>
</linearGradient>
<linearGradient id="paint5_linear_19_342" x1="157.5" y1="-3" x2="247" y2="193.5" gradientUnits="userSpaceOnUse">
<stop stop-color="#DCAD4A"/>
<stop offset="1" stop-color="#A0813F"/>
</linearGradient>
<linearGradient id="paint6_linear_19_342" x1="157.5" y1="-3" x2="247" y2="193.5" gradientUnits="userSpaceOnUse">
<stop stop-color="#DCAD4A"/>
<stop offset="1" stop-color="#A0813F"/>
</linearGradient>
<clipPath id="clip0_19_342">
<rect width="392" height="244" fill="white" transform="translate(-2)"/>
</clipPath>
</defs>
</svg>
