<svg width="35" height="35" viewBox="0 0 35 35" fill="none" xmlns="http://www.w3.org/2000/svg">
<path d="M18.9992 2.91813C20.0634 2.91405 21.1276 2.92474 22.1915 2.95021L22.4744 2.96042C22.801 2.97209 23.1233 2.98667 23.5127 3.00417C25.0644 3.07709 26.1231 3.32209 27.0521 3.6823C28.0146 4.05271 28.8254 4.55438 29.6363 5.36521C30.3776 6.09381 30.9514 6.97514 31.3177 7.94792C31.6779 8.87688 31.9229 9.93709 31.9958 11.4888C32.0133 11.8767 32.0279 12.2004 32.0396 12.5271L32.0483 12.81C32.0743 13.8734 32.0854 14.9371 32.0819 16.0008L32.0833 17.0888V18.9992C32.0869 20.0634 32.0758 21.1276 32.0498 22.1915L32.041 22.4744C32.0294 22.801 32.0148 23.1233 31.9973 23.5127C31.9244 25.0644 31.6765 26.1231 31.3177 27.0521C30.9526 28.0259 30.3787 28.908 29.6363 29.6363C28.907 30.3776 28.0252 30.9513 27.0521 31.3177C26.1231 31.6779 25.0644 31.9229 23.5127 31.9958C23.1233 32.0133 22.801 32.0279 22.4744 32.0396L22.1915 32.0483C21.1276 32.0743 20.0634 32.0854 18.9992 32.0819L17.9113 32.0833H16.0023C14.9381 32.0869 13.8739 32.0758 12.81 32.0498L12.5271 32.041C12.1809 32.0285 11.8348 32.0139 11.4888 31.9973C9.93709 31.9244 8.87834 31.6765 7.94792 31.3177C6.97475 30.9522 6.09327 30.3783 5.36522 29.6363C4.62299 28.9075 4.04867 28.0256 3.6823 27.0521C3.32209 26.1231 3.07709 25.0644 3.00417 23.5127C2.98793 23.1667 2.97335 22.8206 2.96042 22.4744L2.95313 22.1915C2.92625 21.1276 2.91409 20.0634 2.91667 18.9992V16.0008C2.9126 14.9371 2.9233 13.8734 2.94876 12.81L2.95897 12.5271C2.97063 12.2004 2.98522 11.8767 3.00272 11.4888C3.07563 9.93563 3.32063 8.87834 3.68084 7.94792C4.04743 6.97466 4.62287 6.09357 5.36667 5.36667C6.09423 4.62402 6.97516 4.04917 7.94792 3.6823C8.87834 3.32209 9.93563 3.07709 11.4888 3.00417L12.5271 2.96042L12.81 2.95313C13.8734 2.92626 14.9371 2.9141 16.0008 2.91667L18.9992 2.91813ZM17.5 10.2098C16.5339 10.1961 15.5747 10.3746 14.6781 10.7349C13.7815 11.0952 12.9655 11.63 12.2775 12.3084C11.5894 12.9868 11.0431 13.7952 10.6702 14.6865C10.2973 15.5779 10.1052 16.5345 10.1052 17.5007C10.1052 18.467 10.2973 19.4236 10.6702 20.3149C11.0431 21.2063 11.5894 22.0147 12.2775 22.6931C12.9655 23.3714 13.7815 23.9063 14.6781 24.2666C15.5747 24.6268 16.5339 24.8053 17.5 24.7917C19.4339 24.7917 21.2885 24.0234 22.656 22.656C24.0234 21.2885 24.7917 19.4339 24.7917 17.5C24.7917 15.5661 24.0234 13.7115 22.656 12.344C21.2885 10.9766 19.4339 10.2098 17.5 10.2098ZM17.5 13.1265C18.0812 13.1158 18.6586 13.221 19.1987 13.4359C19.7387 13.6509 20.2305 13.9713 20.6453 14.3785C21.0601 14.7857 21.3896 15.2714 21.6146 15.8074C21.8396 16.3433 21.9555 16.9187 21.9556 17.5C21.9557 18.0812 21.84 18.6567 21.6152 19.1927C21.3904 19.7287 21.061 20.2146 20.6463 20.6219C20.2317 21.0292 19.74 21.3498 19.2 21.565C18.6601 21.7801 18.0826 21.8855 17.5015 21.875C16.3411 21.875 15.2283 21.4141 14.4079 20.5936C13.5874 19.7731 13.1265 18.6603 13.1265 17.5C13.1265 16.3397 13.5874 15.2269 14.4079 14.4064C15.2283 13.5859 16.3411 13.125 17.5015 13.125L17.5 13.1265ZM25.1563 8.0223C24.6858 8.04113 24.2409 8.24127 23.9146 8.5808C23.5884 8.92033 23.4062 9.37291 23.4062 9.84376C23.4062 10.3146 23.5884 10.7672 23.9146 11.1067C24.2409 11.4462 24.6858 11.6464 25.1563 11.6652C25.6397 11.6652 26.1034 11.4732 26.4453 11.1313C26.7871 10.7894 26.9792 10.3258 26.9792 9.8423C26.9792 9.35883 26.7871 8.89516 26.4453 8.5533C26.1034 8.21144 25.6397 8.01938 25.1563 8.01938V8.0223Z" fill="#8E6D26"/>
</svg>
